<svg width="40" height="40" viewBox="0 0 40 40" fill="none" xmlns="http://www.w3.org/2000/svg">
<g clip-path="url(#clip0_2959_1532)">
<path d="M25.3619 19.665C29.4701 21.6918 31.8803 25.0058 32.6198 29.5249C32.8663 31.0587 31.9899 32.5651 30.5109 33.2772C28.2103 34.3453 25.7727 35.03 23.2529 35.3587C18.6516 35.9339 14.1873 35.3313 9.91467 33.5237C7.6688 32.5925 6.90192 31.0587 7.4223 28.6759C8.35352 24.5676 10.7363 21.5822 14.4886 19.6924C14.6803 19.6924 14.7898 19.8567 14.9542 19.9389C16.4058 20.9523 18.0217 21.5001 19.802 21.5275C21.8835 21.5822 23.7185 20.8975 25.3619 19.6924V19.665Z" fill="#C3D5FF"/>
<path d="M25.3618 19.665C23.7185 20.8975 21.8561 21.5548 19.802 21.5001C18.0217 21.4727 16.4058 20.9249 14.9542 19.9115C14.8172 19.802 14.6803 19.6924 14.4886 19.665C13.9408 19.0351 13.3109 18.5147 12.8452 17.83C11.9962 16.5701 11.4484 15.2007 11.3115 13.6669C11.0924 11.3115 11.7223 9.22997 13.1465 7.42232C14.516 5.66945 16.3236 4.5739 18.5421 4.24524C21.0618 3.8618 23.3625 4.40957 25.3345 5.99811C27.2517 7.53187 28.3746 9.53124 28.5937 12.0236C28.8402 14.8994 27.8816 17.2822 25.8275 19.2542C25.6631 19.4185 25.4988 19.5555 25.3345 19.6924L25.3618 19.665Z" fill="#313678"/>
<path d="M-1.52588e-05 32.8663C-1.52588e-05 31.3874 -1.52588e-05 29.9358 -1.52588e-05 28.4568C-1.52588e-05 27.3612 0.629923 26.6491 1.56114 26.6491C2.46496 26.6491 3.0949 27.3612 3.0949 28.4294C3.0949 31.1135 3.0949 33.7702 3.0949 36.4543C3.0949 36.8377 3.20445 36.9199 3.58789 36.9199C6.32676 36.9199 9.06562 36.9199 11.8045 36.9199C12.544 36.9199 13.1191 37.3581 13.3109 38.0428C13.5026 38.7001 13.2287 39.3848 12.6535 39.7683C12.3796 39.9326 12.1058 40.0148 11.8045 40.0148C8.73695 40.0148 5.66943 40.0148 2.6019 40.0148C1.1777 40.0148 0.109539 38.8918 0.0821506 37.4676C0.0821506 37.4402 0.0821506 37.4129 0.0821506 37.3581C0.0821506 35.8791 0.0821506 34.3727 0.0821506 32.8937L-1.52588e-05 32.8663Z" fill="#313678"/>
<path d="M39.96 32.8663C39.96 34.3453 39.96 35.7969 39.96 37.2759C39.96 38.8645 38.8644 39.96 37.2759 39.96C34.2905 39.96 31.3326 39.96 28.3472 39.96C27.3338 39.96 26.6217 39.3027 26.6491 38.3988C26.6491 37.5224 27.3612 36.8925 28.3472 36.8651C31.0313 36.8651 33.7154 36.8651 36.3995 36.8651C36.8377 36.8651 36.9198 36.7281 36.9198 36.3447C36.9198 33.6332 36.9198 30.9491 36.9198 28.2377C36.9198 27.1147 37.8511 26.4026 38.8918 26.6765C39.5492 26.8682 39.9874 27.4434 39.9874 28.1829C39.9874 29.744 39.9874 31.2778 39.9874 32.839L39.96 32.8663Z" fill="#313678"/>
<path d="M7.12103 0C8.6274 0 10.1338 0 11.6401 0C12.6261 0 13.3109 0.657327 13.3109 1.53376C13.3109 2.4102 12.5988 3.06753 11.6401 3.06753C8.92867 3.06753 6.2172 3.06753 3.53312 3.06753C3.14968 3.06753 3.06751 3.14969 3.06751 3.53313C3.06751 6.27199 3.06751 9.01086 3.06751 11.7497C3.06751 12.5714 2.46496 13.2287 1.67069 13.3109C0.985975 13.393 0.246482 12.8727 0.054762 12.1605C-1.52588e-05 11.9688 -1.52588e-05 11.7771 -1.52588e-05 11.5854C-1.52588e-05 8.62742 -1.52588e-05 5.66944 -1.52588e-05 2.71147C-1.52588e-05 1.06816 1.09553 0 2.71146 0C4.19044 0 5.66943 0 7.12103 0Z" fill="#313678"/>
<path d="M32.8663 0C34.3453 0 35.8243 0 37.2759 0C38.8644 0 39.96 1.09555 39.96 2.68409C39.96 5.66945 39.96 8.62742 39.96 11.6128C39.96 12.5988 39.3027 13.3383 38.3988 13.3383C37.5224 13.3383 36.8925 12.5988 36.8651 11.6402C36.8651 8.92869 36.8651 6.21722 36.8651 3.53313C36.8651 3.17708 36.7555 3.09491 36.4269 3.09491C33.688 3.09491 30.9491 3.09491 28.2103 3.09491C27.1147 3.09491 26.3752 2.13631 26.6765 1.09554C26.8682 0.438218 27.4708 0.0273886 28.2103 0.0273886C29.744 0.0273886 31.2778 0.0273886 32.8116 0.0273886L32.8663 0Z" fill="#313678"/>
</g>
<defs>
<clipPath id="clip0_2959_1532">
<rect width="39.96" height="39.96" fill="white"/>
</clipPath>
</defs>
</svg>
