<svg width="52" height="47" viewBox="0 0 52 47" fill="none" xmlns="http://www.w3.org/2000/svg">
<path d="M47.3319 18.9727C46.1029 19.5528 44.8739 20.1692 43.645 20.7493C43.4694 20.8219 43.2938 20.8581 43.1183 20.9306C38.1322 23.2512 33.1461 25.608 28.1599 27.9285C26.5096 28.6899 24.8593 28.7262 23.209 27.9285C19.3816 26.1156 15.5191 24.3027 11.6917 22.526C10.4277 21.9459 9.2338 21.2932 7.93461 20.8219C6.84609 20.1692 5.65223 19.7704 4.56372 19.154C3.44009 18.5376 2.14089 18.2475 1.19283 17.2323C-0.773525 15.1293 -0.246823 11.6122 2.31646 10.3794C5.05531 9.03786 7.86438 7.76881 10.6383 6.46351C13.0963 5.30324 15.5191 4.17923 17.977 3.01896C19.8381 2.14876 21.664 1.2423 23.525 0.44461C25.3158 -0.353076 27.0363 0.00950854 28.7218 0.843453C33.8483 3.27277 39.01 5.70208 44.1717 8.09514C45.6113 8.78405 47.051 9.4367 48.4906 10.0894C50.7379 11.1046 51.7562 13.0988 51.1944 15.3468C51.1944 15.0205 51.1944 14.6579 51.1944 14.3316C51.1944 13.1351 50.457 12.2649 49.2631 12.1923C46.1029 12.0111 42.9076 11.8298 39.7474 11.6485C37.9917 11.5397 36.236 11.4672 34.4804 11.3584C31.5659 11.2134 28.6164 11.0321 25.702 10.8508C25.2806 10.8508 24.8944 10.9233 24.5433 11.2134C23.841 11.7572 23.525 12.6274 23.8059 13.4614C24.0868 14.3316 24.7891 14.9117 25.7371 14.948C27.0012 15.0205 28.2302 15.0568 29.4943 15.1293C32.7247 15.3106 35.9551 15.5281 39.1856 15.7457C41.7488 15.8907 44.3121 16.0357 46.8754 16.1445C47.2265 16.1445 47.4021 16.2533 47.4021 16.6521C47.4021 17.4136 47.4021 18.175 47.4021 18.9364L47.3319 18.9727Z" fill="#313678"/>
<path d="M7.93457 20.8582C9.23377 21.3295 10.4627 21.9822 11.6917 22.5623C15.5542 24.339 19.3816 26.1882 23.2089 27.9648C24.8592 28.7262 26.5096 28.7262 28.1599 27.9648C33.146 25.6443 38.1321 23.2875 43.1182 20.9669C43.2938 20.8944 43.4694 20.8219 43.6449 20.7856C43.6449 26.8045 43.6449 32.8234 43.6449 38.8423C43.6449 40.8366 42.7671 42.3957 40.9763 43.3021C36.9734 45.3689 32.7247 46.5654 28.2653 46.8917C22.0853 47.3631 16.1862 46.1303 10.6383 43.3384C8.95286 42.5044 7.96968 41.0541 7.96968 39.0962C7.96968 33.041 7.96968 26.9858 7.96968 20.9307L7.93457 20.8582Z" fill="#C3D5FF"/>
<path d="M47.3318 18.9728C47.3318 18.2114 47.3318 17.45 47.3318 16.6886C47.3318 16.2897 47.1563 16.1809 46.8051 16.1809C44.2419 16.0722 41.6786 15.9271 39.1153 15.7821C35.8849 15.6008 32.6544 15.3833 29.424 15.1657C28.1599 15.0932 26.9309 15.0569 25.6668 14.9844C24.7188 14.9482 23.9814 14.4043 23.7356 13.4978C23.4898 12.6639 23.7707 11.7937 24.473 11.2498C24.8241 10.996 25.2104 10.8872 25.6317 10.8872C28.5461 11.0685 31.4957 11.2135 34.4101 11.3948C36.1658 11.5036 37.9214 11.5761 39.6771 11.6849C42.8373 11.8662 46.0326 12.0112 49.1929 12.2288C50.3516 12.3013 51.089 13.1715 51.1241 14.368C51.1241 14.6943 51.1241 15.0569 51.1241 15.3833C51.1241 18.4652 51.1241 21.5109 51.1241 24.5929C51.1241 26.9497 51.1241 29.3065 51.1241 31.627C51.1241 32.9686 50.3165 33.9476 49.1929 33.9476C48.1043 33.9476 47.2967 32.9686 47.2967 31.6633C47.2967 27.4211 47.2967 23.1788 47.2967 18.9728H47.3318Z" fill="#C3D5FF"/>
</svg>
