<svg width="58" height="49" viewBox="0 0 58 49" fill="none" xmlns="http://www.w3.org/2000/svg">
<path d="M19.3781 7.84557C23.4372 6.04748 27.4941 4.24487 31.5554 2.45131C32.9986 1.8135 34.4353 1.15307 35.9071 0.5899C39.403 -0.74679 42.9341 1.73434 42.9429 5.55216C42.9649 14.5087 42.9649 23.4652 42.9429 32.4217C42.9341 36.3119 39.2116 38.8586 35.6959 37.3523C30.8712 35.2873 26.0816 33.1386 21.2745 31.0307C20.7377 30.7955 20.1877 30.5919 19.6443 30.3725C19.2505 29.9767 19.3693 29.4656 19.3693 28.9906C19.3693 21.943 19.3737 14.8932 19.3781 7.84557Z" fill="#313678"/>
<path d="M19.3781 7.84558C19.3737 14.8932 19.3693 21.943 19.3693 28.9906C19.3693 29.4656 19.2527 29.9767 19.6443 30.3725C19.5695 30.3951 19.4947 30.42 19.4177 30.4449C18.7973 30.4404 18.179 30.4449 17.5608 30.4268C13.6953 30.3205 9.75282 30.9651 6.06772 29.1557C4.71688 28.1922 3.44745 27.1654 2.43542 25.788C-2.3431 19.2832 1.29579 9.54414 9.0774 8.03782C10.9364 7.67821 12.7977 7.89081 14.6567 7.83879C16.2298 7.79582 17.805 7.83879 19.3781 7.84331V7.84558Z" fill="#C3D5FF"/>
<path d="M6.06773 29.158C9.75503 30.9651 13.6975 30.3228 17.5608 30.4291C18.1791 30.4449 18.7995 30.4426 19.4177 30.4472C19.4177 34.4391 19.4243 38.4288 19.4221 42.4208C19.4221 45.8881 17.7632 47.987 14.4258 48.3805C12.3379 48.627 10.1708 48.7763 8.28539 47.3921C6.64415 46.1866 6.06993 44.4632 6.06333 42.4887C6.05013 38.0466 6.06333 33.6023 6.06333 29.158H6.06773Z" fill="#313678"/>
<path d="M55.0476 1.72077C56.218 1.71399 56.8759 2.198 57.2675 3.11853C57.6547 4.02775 57.4567 4.799 56.7967 5.47979C56.6691 5.61323 56.5437 5.76703 56.3875 5.85071C54.2754 6.95897 52.2073 8.16222 49.9985 9.06239C49.0503 9.44915 48.2824 9.03299 47.6752 8.28209C47.112 7.58321 47.0174 6.78934 47.4134 5.97737C47.6642 5.4617 48.0822 5.09529 48.586 4.83519C50.4473 3.87848 52.3107 2.92176 54.1698 1.96052C54.5064 1.78636 54.854 1.7072 55.0476 1.72304V1.72077Z" fill="#C3D5FF"/>
<path d="M49.6113 28.8323C49.8445 28.8051 50.2141 28.9544 50.5771 29.1421C52.4362 30.1011 54.3018 31.051 56.1586 32.0191C57.3269 32.6297 57.7471 33.7787 57.2565 34.9231C56.7483 36.1106 55.6702 36.6624 54.4646 36.1106C52.3437 35.138 50.2537 34.0795 48.2164 32.9351C47.332 32.4375 46.9646 31.5373 47.3122 30.42C47.6532 29.3276 48.3528 28.8481 49.6113 28.83V28.8323Z" fill="#C3D5FF"/>
<path d="M52.2975 21.1785C51.2723 21.1785 50.2449 21.2057 49.2219 21.1717C48.0778 21.1356 47.3958 20.4435 47.189 19.195C47.0526 18.3672 47.6576 17.2702 48.4826 16.9151C48.7818 16.7862 49.1163 16.6822 49.4353 16.6777C51.3405 16.655 53.2458 16.6347 55.1488 16.6777C56.2378 16.7025 57.0409 17.2974 57.3797 18.3694C57.6613 19.2651 57.4105 20.0748 56.6889 20.7036C56.273 21.0654 55.7978 21.1898 55.2654 21.183C54.2776 21.1717 53.2876 21.1808 52.2975 21.1808V21.1763V21.1785Z" fill="#C3D5FF"/>
</svg>
