<svg width="62" height="63" viewBox="0 0 62 63" fill="none" xmlns="http://www.w3.org/2000/svg">
<path d="M6.18408 49.2748C5.46695 49.0084 5.18049 48.3273 4.82994 47.7564C2.75265 44.355 1.17215 40.7453 0.513109 36.785C0.054383 34.0327 -0.135918 31.2863 0.104462 28.4719C0.440995 24.5336 1.43657 20.8278 3.17933 17.3102C4.40727 14.8303 5.94771 12.5587 7.79463 10.4774C10.3427 7.60684 13.3094 5.32322 16.6967 3.53639C19.6674 1.96791 22.7964 0.930271 26.1056 0.423469C28.0106 0.131006 29.9277 -0.0592953 31.8607 0.0168252C37.2352 0.229161 42.2572 1.62537 46.8965 4.39175C48.9638 5.6257 50.8808 7.06999 52.5835 8.73662C55.1836 11.2786 57.307 14.1973 58.8995 17.5025C60.1074 20.0105 61.0189 22.5986 61.4796 25.3349C61.9423 28.0852 62.1466 30.8336 61.8842 33.65C61.5176 37.5783 60.5321 41.2921 58.7993 44.8077C58.0822 46.262 57.345 47.7263 56.2774 48.9823C56.1371 49.1466 56.0069 49.2668 55.7906 49.2788C55.0895 48.4795 54.4284 47.6422 53.6832 46.887C46.0812 39.1748 36.9287 35.9236 26.1697 37.4641C20.3866 38.2914 15.3105 40.7272 10.8314 44.4732C9.10671 45.9155 7.68446 47.6282 6.18408 49.2748ZM43.0084 21.0701C43.0184 14.4396 37.6218 9.02909 30.9993 9.02708C24.4149 9.02708 19.0044 14.3976 18.9823 20.96C18.9583 27.6025 24.3328 33.0371 30.9413 33.0531C37.5778 33.0691 43.0003 27.6866 43.0104 21.0701H43.0084Z" fill="#C6D4ED"/>
<path d="M6.18409 49.2748C7.68446 47.6282 9.10671 45.9155 10.8314 44.4732C15.3085 40.7273 20.3866 38.2914 26.1697 37.4641C36.9267 35.9237 46.0812 39.1748 53.6833 46.887C54.4284 47.6422 55.0895 48.4795 55.7906 49.2788C55.9288 49.6734 55.6404 49.8998 55.44 50.1542C51.025 55.717 45.4182 59.527 38.4972 61.1296C26.969 63.7978 16.9812 60.795 8.57988 52.4939C7.82469 51.7467 7.18367 50.8854 6.49258 50.0741C6.29827 49.8457 6.08794 49.6194 6.18609 49.2748H6.18409Z" fill="#303778"/>
<path d="M43.0083 21.0702C42.9983 27.6866 37.5777 33.0691 30.9392 33.0531C24.3308 33.0371 18.9583 27.6025 18.9803 20.96C19.0044 14.3976 24.4129 9.0251 30.9973 9.0271C37.6198 9.0271 43.0164 14.4397 43.0063 21.0702H43.0083Z" fill="#303778"/>
</svg>
