<svg width="48" height="48" viewBox="0 0 48 48" fill="none" xmlns="http://www.w3.org/2000/svg">
<g clip-path="url(#clip0_2959_1436)">
<path d="M21.9799 10.4451C23.0805 10.4842 24.1887 10.3579 25.2647 10.7585C26.8274 11.3399 27.9601 12.8686 27.9704 14.5215C27.9784 15.7698 27.9755 17.0186 27.9778 18.2669C26.2219 18.6675 25.016 19.6659 24.5243 21.4208C24.3156 22.1665 24.4025 22.9382 24.3648 23.6992C24.3436 24.127 24.486 24.2896 24.9028 24.2137C25.4671 24.1117 25.6101 24.327 25.6089 24.8954C25.5901 32.4259 25.6004 39.9564 25.6032 47.4869C24.3922 47.4869 23.1812 47.4869 21.9702 47.4869C21.973 39.9689 21.9702 32.4508 21.9925 24.9328C21.9942 24.365 21.8701 24.1009 21.2686 24.2137C20.8209 24.2976 20.7454 24.0737 20.7511 23.6788C20.7723 22.2611 20.7677 20.8434 20.754 19.4257C20.746 18.5939 20.2394 17.9479 19.4641 17.7218C18.2862 17.3784 17.169 18.2363 17.1507 19.5362C17.1284 21.0842 17.1421 22.6328 17.1478 24.1814C17.1489 24.4347 17.1238 24.6256 16.8625 24.7815C15.393 25.6569 14.7412 26.9721 14.7458 28.6584C14.7583 33.341 14.7572 38.0236 14.7435 42.7063C14.7412 43.537 14.8138 44.3421 15.1311 45.1156C12.9996 45.1281 10.868 45.1405 8.73697 45.153C7.53167 45.1507 6.32694 45.1484 5.12163 45.1462C3.12728 45.1887 1.57205 44.4628 0.661208 42.6275C0.409626 42.1204 0.293556 41.5719 0.293556 41.0081C0.290697 32.2021 0.287838 23.3955 0.294128 14.5895C0.295843 12.5813 1.88252 10.8458 3.88545 10.5398C4.69509 10.4157 5.49958 10.5041 6.30407 10.4417C7.5088 10.444 8.7141 10.4468 9.91884 10.4491C12.7343 10.448 15.5491 10.4468 18.3645 10.4463H21.9793L21.9799 10.4451ZM7.52081 27.7971C7.52081 30.5209 7.51852 33.2441 7.52195 35.9679C7.52309 37.0983 8.28298 37.9369 9.30761 37.9545C10.346 37.9726 11.1339 37.1176 11.1344 35.9526C11.1373 30.5056 11.1356 25.058 11.135 19.611C11.135 19.3877 11.135 19.1673 11.0641 18.9474C10.7879 18.0958 9.94857 17.5331 9.12292 17.6584C8.16463 17.804 7.52767 18.4987 7.52424 19.458C7.51452 22.2373 7.52081 25.0172 7.52024 27.7965L7.52081 27.7971Z" fill="#C3D5FF"/>
<path d="M25.6038 47.4869C25.6009 39.9564 25.5906 32.4259 25.6095 24.8953C25.6107 24.3265 25.4677 24.1111 24.9034 24.2137C24.4865 24.2891 24.3442 24.1264 24.3653 23.6992C24.4031 22.9382 24.3162 22.1665 24.5249 21.4208C25.016 19.6665 26.2219 18.6675 27.9784 18.2669C29.7252 18.2629 31.4714 18.251 33.2181 18.2573C35.8449 18.2669 37.6351 20.0405 37.6551 22.639C37.6591 23.1603 37.6517 23.6811 37.65 24.2024C37.5562 24.2063 37.4619 24.212 37.3681 24.2131C36.7494 24.2218 36.4401 24.5387 36.4401 25.1639C36.4372 32.6049 36.4344 40.0459 36.4309 47.4864C32.8225 47.4864 29.2134 47.4864 25.6049 47.4864L25.6038 47.4869ZM30.9916 24.2137C31.8745 24.2137 32.7573 24.2069 33.6401 24.2177C33.9088 24.2211 34.0627 24.1769 34.0461 23.8578C34.0226 23.4125 34.0495 22.9643 34.0364 22.5178C34.0238 22.0735 33.7956 21.8355 33.3285 21.8361C31.7881 21.8395 30.2478 21.8401 28.708 21.8361C28.2397 21.835 28.0144 22.0701 28.003 22.5166C27.9927 22.9257 28.0196 23.3365 27.9938 23.7445C27.9715 24.0964 28.0676 24.2364 28.4564 24.2222C29.3003 24.1922 30.1466 24.2131 30.9916 24.2131V24.2137Z" fill="#313678"/>
<path d="M15.1317 45.115C14.8144 44.3416 14.7418 43.5364 14.7441 42.7057C14.7578 38.0231 14.7589 33.3404 14.7463 28.6578C14.7418 26.9715 15.3936 25.6564 16.8631 24.7809C17.1244 24.6251 17.1495 24.4341 17.1484 24.1809C17.1427 22.6322 17.1289 21.0836 17.1512 19.5356C17.1701 18.2363 18.2868 17.3784 19.4646 17.7213C20.24 17.9473 20.7466 18.5933 20.7546 19.4251C20.7683 20.8428 20.7729 22.2611 20.7517 23.6782C20.746 24.0732 20.8215 24.297 21.2692 24.2131C21.8707 24.1004 21.9947 24.3644 21.993 24.9322C21.9707 32.4503 21.9742 39.9683 21.9707 47.4864C20.9381 47.4892 19.9043 47.5215 18.8729 47.4886C17.1615 47.4342 15.9459 46.5752 15.1311 45.1139L15.1317 45.115Z" fill="#313678"/>
<path d="M40.0629 24.2262C41.3402 24.246 42.6273 24.0822 43.8921 24.3134C45.8521 24.6721 47.2661 26.3301 47.2741 28.3019C47.2941 33.3376 47.2976 38.3738 47.2735 43.41C47.2627 45.6505 45.4244 47.4484 43.1676 47.492C42.1333 47.5119 41.0978 47.4898 40.0629 47.4869C40.0629 39.7332 40.0629 31.9794 40.0629 24.2262Z" fill="#313678"/>
<path d="M9.91998 10.448C8.71525 10.4457 7.50994 10.4429 6.30521 10.4406C6.30521 8.65062 6.28634 6.86063 6.31779 5.07178C6.32637 4.58901 6.17485 4.45925 5.718 4.50402C5.3269 4.54255 4.92837 4.51932 4.53385 4.50968C3.49264 4.48475 2.68244 3.68637 2.69444 2.7044C2.70588 1.72923 3.48693 0.936509 4.50583 0.934809C10.9395 0.925743 17.3737 0.925176 23.8078 0.934809C24.8159 0.936509 25.5964 1.75302 25.5935 2.72536C25.5906 3.69827 24.8107 4.47852 23.7976 4.50912C23.3464 4.52272 22.893 4.53462 22.4436 4.50458C22.0782 4.48022 21.9673 4.59184 21.9713 4.96355C21.9907 6.79037 21.9799 8.61776 21.9799 10.4446H18.3651C18.3651 8.63589 18.3565 6.82664 18.3725 5.01795C18.376 4.65927 18.3297 4.49722 17.9003 4.50118C15.3976 4.52272 12.8944 4.52215 10.3917 4.50118C9.96458 4.49778 9.90854 4.65757 9.91198 5.02078C9.92799 6.82947 9.91941 8.63872 9.91941 10.4474L9.91998 10.448Z" fill="#313678"/>
<path d="M40.0629 24.2262C40.0629 31.98 40.0629 39.7337 40.0629 47.4869C38.8519 47.4869 37.6408 47.4869 36.4298 47.4869C36.4327 40.0459 36.4361 32.6049 36.439 25.1645C36.439 24.539 36.7483 24.222 37.3669 24.2137C37.4607 24.2126 37.5551 24.2063 37.6488 24.2029C38.4533 24.2109 39.2578 24.2188 40.0629 24.2262Z" fill="#C3D5FF"/>
<path d="M5.12163 45.1456C6.32693 45.1479 7.53167 45.1502 8.73697 45.1524C8.76613 45.795 8.71639 46.4217 8.23038 46.9112C7.7215 47.424 7.1097 47.6479 6.39669 47.4053C5.6631 47.1555 5.21883 46.6461 5.13593 45.8664C5.11077 45.6284 5.12563 45.3859 5.1222 45.1451L5.12163 45.1456Z" fill="#313678"/>
<path d="M7.52138 27.7971C7.52138 25.0178 7.51509 22.2379 7.52481 19.4585C7.52824 18.4992 8.16462 17.8045 9.12349 17.6589C9.94914 17.5337 10.7885 18.0964 11.0647 18.948C11.1361 19.1679 11.1356 19.3883 11.1356 19.6115C11.1361 25.0586 11.1373 30.5061 11.135 35.9532C11.1344 37.1182 10.3465 37.9732 9.30818 37.9551C8.28355 37.9369 7.52366 37.0983 7.52252 35.9685C7.51909 33.2447 7.52138 30.5214 7.52138 27.7976V27.7971Z" fill="#313678"/>
</g>
<defs>
<clipPath id="clip0_2959_1436">
<rect width="47" height="46.5759" fill="white" transform="translate(0.290695 0.928009)"/>
</clipPath>
</defs>
</svg>
