<svg width="49" height="49" viewBox="0 0 49 49" fill="none" xmlns="http://www.w3.org/2000/svg">
<path d="M43.3473 38.055C41.5973 31.3168 37.4261 26.7248 30.8623 24.2791C30.2638 24.0557 30.2664 24.0763 30.7244 23.6489C30.9052 23.4797 31.0796 23.308 31.2487 23.1362C31.4114 23.0303 31.5675 22.9141 31.7119 22.7798C34.2203 19.9466 35.4212 16.6705 35.1311 12.8818C34.9502 10.5109 34.1228 8.34146 32.8425 6.51939C31.8251 4.98916 30.5032 3.75724 28.9016 2.83135C26.8824 1.59813 24.5262 0.904688 22.0685 0.929223C19.6108 0.903397 17.2533 1.59813 15.2327 2.82877C13.6311 3.75465 12.3092 4.98658 11.2918 6.51681C10.0129 8.33887 9.1854 10.5083 9.00326 12.8792C8.71312 16.6692 9.914 19.9441 12.4224 22.7772C12.5669 22.9115 12.723 23.0278 12.8856 23.1336C13.056 23.3067 13.2291 23.4771 13.4099 23.6463C13.8666 24.0737 13.8705 24.0531 13.272 24.2765C6.70819 26.7222 2.537 31.3142 0.787082 38.0524C0.45271 39.3463 0.312196 40.6751 0.291379 42.0116C0.249746 44.8383 2.11156 46.7353 4.94916 46.7366C7.56169 46.7379 10.1742 46.7366 12.788 46.7379C13.9772 46.7379 15.1664 46.7379 16.3555 46.7379C18.2603 46.7379 20.1637 46.7379 22.0685 46.7379C23.9732 46.7379 25.8767 46.7379 27.7814 46.7379C28.9706 46.7379 30.1597 46.7379 31.3489 46.7379C33.9614 46.7379 36.574 46.7379 39.1878 46.7366C42.0254 46.7353 43.8872 44.8383 43.8456 42.0116C43.826 40.6751 43.6842 39.3463 43.3486 38.0537L43.3473 38.055Z" fill="#C3D5FF"/>
<path d="M22.4595 48.3465C21.4454 47.9423 20.5266 47.3911 19.896 46.4579C18.752 44.7634 18.6413 42.9798 19.6322 41.1869C22.2767 36.4028 24.9496 31.6346 27.6122 26.861C28.172 25.8569 28.7253 24.849 29.2916 23.8488C31.245 20.397 35.726 20.2867 37.8416 23.6349C37.9163 23.753 38.0115 23.8567 38.0964 23.967C38.5751 25.1298 39.2688 26.1733 39.8685 27.2666C41.4578 30.1659 43.0818 33.0455 44.693 35.933C45.626 37.6051 46.5461 39.2851 47.4997 40.9454C48.4739 42.6438 48.5961 44.3605 47.5975 46.0667C46.6465 47.6903 45.1962 48.483 43.3366 48.483C37.7258 48.483 32.115 48.4896 26.5042 48.4791C25.1555 48.4765 23.8017 48.5802 22.4595 48.3465ZM35.5201 33.2555C35.5201 32.4654 35.5291 31.6766 35.5175 30.8864C35.5021 29.7393 34.7003 28.8836 33.6477 28.8731C32.5834 28.8626 31.7289 29.6894 31.7083 30.8313C31.6787 32.4706 31.6762 34.1112 31.7096 35.7505C31.7328 36.8714 32.631 37.7377 33.6567 37.7167C34.7132 37.6943 35.5021 36.8425 35.5175 35.6849C35.5291 34.8751 35.5201 34.0653 35.5201 33.2555ZM35.5175 40.9861C35.5291 39.9111 34.7055 39.0252 33.6695 38.9976C32.6284 38.9701 31.7019 39.8901 31.7032 40.9493C31.7045 42.0059 32.568 42.8853 33.6065 42.8892C34.6823 42.8931 35.5059 42.0741 35.5175 40.9848V40.9861Z" fill="#313678"/>
</svg>
