<svg width="20" height="12" viewBox="0 0 20 12" fill="none" xmlns="http://www.w3.org/2000/svg">
<path d="M1.4 12L0 10.6L5.3 5.3C5.88333 4.71667 6.59167 4.425 7.425 4.425C8.25833 4.425 8.96667 4.71667 9.55 5.3L10.7 6.45C10.9 6.65 11.1375 6.75 11.4125 6.75C11.6875 6.75 11.925 6.65 12.125 6.45L16.575 2H14V0H20V6H18V3.425L13.525 7.875C12.9417 8.45833 12.2333 8.75 11.4 8.75C10.5667 8.75 9.85833 8.45833 9.275 7.875L8.1 6.7C7.91667 6.51667 7.68333 6.425 7.4 6.425C7.11667 6.425 6.88333 6.51667 6.7 6.7L1.4 12Z" fill="#313678"/>
</svg>
