<svg width="32" height="32" viewBox="0 0 32 32" fill="none" xmlns="http://www.w3.org/2000/svg">
<path d="M-6.98601e-07 15.9821L2.82353 15.9821L2.82353 28.5972C2.82353 28.7421 2.88392 28.8748 3.0047 28.9953C3.12517 29.1161 3.25788 29.1765 3.40282 29.1765L28.5972 29.1765C28.7421 29.1765 28.8748 29.1161 28.9953 28.9953C29.1161 28.8748 29.1765 28.7421 29.1765 28.5972L29.1765 15.9821L32 15.9821L32 28.5972C32 29.5481 31.6706 30.3529 31.0118 31.0118C30.3529 31.6706 29.5481 32 28.5972 32L3.40282 32C2.45192 32 1.64706 31.6706 0.988232 31.0118C0.329409 30.3529 -1.29159e-06 29.5481 -1.25002e-06 28.5972L-6.98601e-07 15.9821ZM7.96376 13.4301L10.0056 11.4753L14.5882 16.0579L14.5882 -7.61092e-07L17.4118 -6.37672e-07L17.4118 16.0579L21.9944 11.4753L24.0362 13.4301L16 21.4659L7.96376 13.4301Z" fill="#313678"/>
</svg>
