<svg width="13" height="13" viewBox="0 0 13 13" fill="none" xmlns="http://www.w3.org/2000/svg">
<path d="M2.08333 11.1667H3.03333L9.55 4.65L8.6 3.7L2.08333 10.2167V11.1667ZM0.75 12.5V9.66667L9.55 0.883333C9.68333 0.761111 9.83056 0.666667 9.99167 0.6C10.1528 0.533333 10.3222 0.5 10.5 0.5C10.6778 0.5 10.85 0.533333 11.0167 0.6C11.1833 0.666667 11.3278 0.766667 11.45 0.9L12.3667 1.83333C12.5 1.95556 12.5972 2.1 12.6583 2.26667C12.7194 2.43333 12.75 2.6 12.75 2.76667C12.75 2.94444 12.7194 3.11389 12.6583 3.275C12.5972 3.43611 12.5 3.58333 12.3667 3.71667L3.58333 12.5H0.75ZM9.06667 4.18333L8.6 3.7L9.55 4.65L9.06667 4.18333Z" fill="#313678"/>
</svg>
