<svg width="46" height="47" viewBox="0 0 46 47" fill="none" xmlns="http://www.w3.org/2000/svg">
<path d="M16.0688 22.8786C9.94245 18.0177 9.56928 9.39038 14.2651 4.111C19.0231 -1.23276 26.9842 -1.36153 31.8977 3.69251C36.9045 8.84313 36.8734 17.8889 30.4672 22.9107C31.369 23.2649 32.2398 23.5868 33.0794 24.0053C38.4283 26.5806 42.1601 30.7976 44.3991 36.3989C45.1455 38.266 45.6431 40.2297 45.8607 42.2899C46.1095 44.6399 44.2125 46.8611 41.9113 46.9899C41.7869 46.9899 41.6936 46.9899 41.5692 46.9899C29.3477 46.9899 17.1261 46.9899 4.93566 46.9899C2.91429 46.9899 1.29719 45.7022 0.830716 43.7707C0.550833 42.644 0.830716 41.5173 1.0484 40.4228C1.98135 35.7551 4.09601 31.7312 7.39241 28.3833C9.78696 25.9689 12.5547 24.1984 15.6956 23.0395C15.7889 23.0073 15.8822 22.9429 16.0377 22.8786H16.0688ZM23.3146 46.2495C23.3768 46.0885 23.4701 45.9276 23.5323 45.7344C25.1805 41.1632 26.8598 36.5599 28.508 31.9887C28.6324 31.6668 28.6635 31.3449 28.6013 30.9908C28.2592 28.9949 27.886 26.9991 27.544 25.0032C27.4818 24.6491 27.4196 24.5203 27.0464 24.6491C24.5586 25.4861 22.0396 25.4861 19.5518 24.6491C19.0853 24.4881 18.992 24.6169 18.8987 25.0676C18.6188 26.7737 18.3389 28.512 18.0591 30.2182C17.9658 30.8298 17.8103 31.4093 18.0591 32.0531C19.7383 36.6565 21.3865 41.2598 23.0658 45.8632C23.128 45.9919 23.128 46.1529 23.3146 46.2495Z" fill="#C3D5FF"/>
<path d="M23.3146 46.2494C23.1281 46.1529 23.1281 45.9919 23.0659 45.8631C21.3866 41.2598 19.7384 36.6564 18.0591 32.053C17.8414 31.4092 17.9969 30.8298 18.0591 30.2181C18.3079 28.512 18.6188 26.7737 18.8987 25.0675C18.9609 24.6168 19.0542 24.4881 19.5518 24.649C22.0396 25.486 24.5586 25.486 27.0464 24.649C27.4196 24.5203 27.4818 24.649 27.544 25.0031C27.8861 26.999 28.2281 28.9949 28.6013 30.9907C28.6635 31.3448 28.6324 31.6667 28.508 31.9887C26.8287 36.5598 25.1805 41.1632 23.5323 45.7344C23.4701 45.8953 23.4079 46.0563 23.3146 46.2494Z" fill="#313678"/>
</svg>
