<svg width="67" height="47" viewBox="0 0 67 47" fill="none" xmlns="http://www.w3.org/2000/svg">
<path d="M22.7818 46.9899C17.1203 46.9899 11.5041 46.9899 5.84264 46.9899C2.71751 46.9899 0 44.1984 0 40.9882C0.0452918 29.3105 0.0452918 17.6328 0.0452918 6.00157C0.0452918 2.79136 2.7628 -0.00012207 5.88794 -0.00012207C24.05 -0.00012207 42.1667 -0.00012207 60.3287 -0.00012207C63.4086 -0.00012207 66.1261 2.79136 66.1261 5.95505C66.1261 17.6328 66.1261 29.357 66.1261 41.0347C66.1261 44.2449 63.4086 46.9899 60.2834 46.9899C54.6672 46.9899 49.0057 46.9899 43.3896 46.9899H22.8271H22.7818Z" fill="#C3D5FF"/>
<path d="M42 24.0924C43.0295 25.4791 44.1486 26.7272 45.581 27.6516C50.5944 30.7485 56.8163 29.3619 60.1735 24.4622C60.263 24.3236 60.3973 24.1849 60.4869 24C60.4869 29.2694 60.4869 34.5851 60.4869 39.8545C60.4869 40.178 60.4869 40.5016 60.4421 40.8251C60.1735 42.6278 58.5621 43.5523 56.9059 42.859C55.2049 42.1194 53.5039 41.2874 51.8477 40.5016C51.4449 40.3167 51.0868 40.3167 50.6839 40.5016C49.0725 41.2874 47.461 42.0269 45.8496 42.7665C43.7905 43.691 42.0895 42.5354 42.0448 40.2242C42.0448 34.8624 42.0448 29.5005 42.0448 24.0924H42Z" fill="#313678"/>
<path d="M20.5447 11.7019C16.8878 11.7019 13.201 11.7019 9.54405 11.7019C8.1764 11.7019 7.37365 9.56604 8.08721 7.79376C8.41425 6.93034 8.94942 6.61223 9.57379 6.61223C15.7282 6.61223 21.8827 6.61223 28.0371 6.61223C29.1966 6.61223 30.3264 6.65768 31.486 6.61223C32.7644 6.52135 33.3888 7.8392 33.4185 9.15705C33.4185 10.4295 32.7942 11.7473 31.4562 11.7473C27.829 11.7019 24.2017 11.7473 20.5447 11.7473V11.7019Z" fill="#313678"/>
<path d="M20.5447 20.5125C16.8878 20.5125 13.201 20.5125 9.54405 20.5125C8.1764 20.5125 7.37365 18.3767 8.08721 16.6044C8.41425 15.741 8.94942 15.4229 9.57379 15.4229C15.7282 15.4229 21.8827 15.4229 28.0371 15.4229C29.1966 15.4229 30.3264 15.4683 31.486 15.4229C32.7644 15.332 33.3888 16.6499 33.4185 17.9677C33.4185 19.2401 32.7942 20.558 31.4562 20.558C27.829 20.5125 24.2017 20.558 20.5447 20.558V20.5125Z" fill="#313678"/>
<path d="M20.5447 29.3232C16.8878 29.3232 13.201 29.3232 9.54405 29.3232C8.1764 29.3232 7.37365 27.1874 8.08721 25.4151C8.41425 24.5517 8.94942 24.2336 9.57379 24.2336C15.7282 24.2336 21.8827 24.2336 28.0371 24.2336C29.1966 24.2336 30.3264 24.279 31.486 24.2336C32.7644 24.1427 33.3888 25.4605 33.4185 26.7784C33.4185 28.0508 32.7942 29.3687 31.4562 29.3687C27.829 29.3232 24.2017 29.3687 20.5447 29.3687V29.3232Z" fill="#313678"/>
<path d="M20.5447 38.868C16.8878 38.868 13.201 38.868 9.54405 38.868C8.1764 38.868 7.37365 36.7322 8.08721 34.9599C8.41425 34.0965 8.94942 33.7784 9.57379 33.7784C15.7282 33.7784 21.8827 33.7784 28.0371 33.7784C29.1966 33.7784 30.3264 33.8238 31.486 33.7784C32.7644 33.6875 33.3888 35.0053 33.4185 36.3232C33.4185 37.5956 32.7942 38.9135 31.4562 38.9135C27.829 38.868 24.2017 38.9135 20.5447 38.9135V38.868Z" fill="#313678"/>
<path d="M39.7736 22.6258C39.2315 20.8516 38.8865 19.0773 39.0343 17.2045C39.2807 12.5225 42.5826 7.84055 47.905 6.41131C54.8045 4.53851 61.9503 9.26979 62.8867 16.3667C63.1824 18.4859 62.8867 20.6051 62.1475 22.6258C61.8025 23.2172 61.6054 23.8579 61.1618 24.3507C61.0633 24.4986 60.9154 24.6464 60.8169 24.8436C57.1207 30.0677 50.2706 31.5462 44.751 28.2442C43.1247 27.2585 41.8927 25.9278 40.8085 24.4493C40.3649 23.9072 40.1678 23.2172 39.7736 22.5765V22.6258Z" fill="white"/>
</svg>
