<svg width="24" height="20" viewBox="0 0 24 20" fill="none" xmlns="http://www.w3.org/2000/svg">
<path d="M0.95 11.1286C0.65 10.5286 0.416667 9.92028 0.25 9.30361C0.0833333 8.68695 0 8.06195 0 7.42861C0 5.56195 0.633333 3.99528 1.9 2.72861C3.16667 1.46195 4.73333 0.828613 6.6 0.828613C7.65 0.828613 8.65 1.04945 9.6 1.49111C10.55 1.93278 11.35 2.54528 12 3.32861C12.65 2.54528 13.45 1.93278 14.4 1.49111C15.35 1.04945 16.35 0.828613 17.4 0.828613C19.2667 0.828613 20.8333 1.46195 22.1 2.72861C23.3667 3.99528 24 5.56195 24 7.42861C24 8.06195 23.9167 8.68695 23.75 9.30361C23.5833 9.92028 23.35 10.5286 23.05 11.1286C22.8667 10.8119 22.65 10.5286 22.4 10.2786C22.15 10.0286 21.8583 9.82861 21.525 9.67861C21.675 9.29528 21.7917 8.92028 21.875 8.55361C21.9583 8.18695 22 7.81195 22 7.42861C22 6.12861 21.5583 5.03695 20.675 4.15361C19.7917 3.27028 18.7 2.82861 17.4 2.82861C16.05 2.82861 15.0125 3.19945 14.2875 3.94111C13.5625 4.68278 12.8 5.51195 12 6.42861C11.2 5.49528 10.4375 4.66195 9.7125 3.92861C8.9875 3.19528 7.95 2.82861 6.6 2.82861C5.3 2.82861 4.20833 3.27028 3.325 4.15361C2.44167 5.03695 2 6.12861 2 7.42861C2 7.81195 2.04167 8.18695 2.125 8.55361C2.20833 8.92028 2.325 9.29528 2.475 9.67861C2.14167 9.82861 1.85 10.0286 1.6 10.2786C1.35 10.5286 1.13333 10.8119 0.95 11.1286ZM0 19.8286V18.2536C0 17.5203 0.370833 16.9328 1.1125 16.4911C1.85417 16.0494 2.81667 15.8286 4 15.8286C4.21667 15.8286 4.425 15.8328 4.625 15.8411C4.825 15.8494 5.01667 15.8703 5.2 15.9036C4.96667 16.2369 4.79167 16.5953 4.675 16.9786C4.55833 17.3619 4.5 17.7703 4.5 18.2036V19.8286H0ZM6 19.8286V18.2036C6 17.1203 6.55417 16.2453 7.6625 15.5786C8.77083 14.9119 10.2167 14.5786 12 14.5786C13.8 14.5786 15.25 14.9119 16.35 15.5786C17.45 16.2453 18 17.1203 18 18.2036V19.8286H6ZM19.5 19.8286V18.2036C19.5 17.7703 19.4458 17.3619 19.3375 16.9786C19.2292 16.5953 19.0667 16.2369 18.85 15.9036C19.0333 15.8703 19.2208 15.8494 19.4125 15.8411C19.6042 15.8328 19.8 15.8286 20 15.8286C21.2 15.8286 22.1667 16.0494 22.9 16.4911C23.6333 16.9328 24 17.5203 24 18.2536V19.8286H19.5ZM12 16.5786C11.05 16.5786 10.2 16.7036 9.45 16.9536C8.7 17.2036 8.25833 17.4953 8.125 17.8286H15.9C15.75 17.4953 15.3042 17.2036 14.5625 16.9536C13.8208 16.7036 12.9667 16.5786 12 16.5786ZM4 14.8286C3.45 14.8286 2.97917 14.6328 2.5875 14.2411C2.19583 13.8494 2 13.3786 2 12.8286C2 12.2619 2.19583 11.7869 2.5875 11.4036C2.97917 11.0203 3.45 10.8286 4 10.8286C4.56667 10.8286 5.04167 11.0203 5.425 11.4036C5.80833 11.7869 6 12.2619 6 12.8286C6 13.3786 5.80833 13.8494 5.425 14.2411C5.04167 14.6328 4.56667 14.8286 4 14.8286ZM20 14.8286C19.45 14.8286 18.9792 14.6328 18.5875 14.2411C18.1958 13.8494 18 13.3786 18 12.8286C18 12.2619 18.1958 11.7869 18.5875 11.4036C18.9792 11.0203 19.45 10.8286 20 10.8286C20.5667 10.8286 21.0417 11.0203 21.425 11.4036C21.8083 11.7869 22 12.2619 22 12.8286C22 13.3786 21.8083 13.8494 21.425 14.2411C21.0417 14.6328 20.5667 14.8286 20 14.8286ZM12 13.8286C11.1667 13.8286 10.4583 13.5369 9.875 12.9536C9.29167 12.3703 9 11.6619 9 10.8286C9 9.97861 9.29167 9.26611 9.875 8.69111C10.4583 8.11611 11.1667 7.82861 12 7.82861C12.85 7.82861 13.5625 8.11611 14.1375 8.69111C14.7125 9.26611 15 9.97861 15 10.8286C15 11.6619 14.7125 12.3703 14.1375 12.9536C13.5625 13.5369 12.85 13.8286 12 13.8286ZM12 9.82861C11.7167 9.82861 11.4792 9.92445 11.2875 10.1161C11.0958 10.3078 11 10.5453 11 10.8286C11 11.1119 11.0958 11.3494 11.2875 11.5411C11.4792 11.7328 11.7167 11.8286 12 11.8286C12.2833 11.8286 12.5208 11.7328 12.7125 11.5411C12.9042 11.3494 13 11.1119 13 10.8286C13 10.5453 12.9042 10.3078 12.7125 10.1161C12.5208 9.92445 12.2833 9.82861 12 9.82861Z" fill="#313678"/>
</svg>
