<svg width="47" height="47" viewBox="0 0 47 47" fill="none" xmlns="http://www.w3.org/2000/svg">
<path d="M46.8063 21.4578C46.8063 28.5792 46.8063 35.7006 46.8063 42.7892C46.8063 45.1193 44.8814 46.9899 42.5395 46.9899C36.6687 46.9899 30.7978 46.9899 24.927 46.9899C18.1258 46.9899 11.3246 46.9899 4.52343 46.9899C1.79654 46.9899 0 45.1849 0 42.3954C0 35.4053 0 28.4479 0 21.4578C0 21.5234 0.0962432 21.589 0.0962432 21.6547C0.545378 24.838 3.27227 27.2993 6.41621 27.3321C9.68848 27.3321 12.9287 27.3321 16.2009 27.3321C16.618 27.3321 16.7784 27.2337 16.7784 26.7742C16.7463 25.56 16.7784 24.3129 16.7784 23.0987C16.8105 20.6373 18.607 18.8324 20.981 18.7995C22.5209 18.7995 24.0608 18.8324 25.6007 18.7995C28.0068 18.7011 30.06 20.6045 30.0279 23.3612C30.0279 24.477 30.0279 25.6256 30.0279 26.7414C30.0279 27.2009 30.1241 27.3649 30.6053 27.3649C33.8776 27.3649 37.1178 27.3649 40.3901 27.3649C42.5074 27.3649 44.1756 26.3804 45.491 24.6739C46.2288 23.7222 46.5176 22.6064 46.8063 21.4906V21.4578Z" fill="#C3D5FF"/>
<path d="M46.8063 22.5259C46.5176 23.6025 46.2288 24.6791 45.491 25.5974C44.1756 27.2439 42.5074 28.1622 40.3901 28.1939C37.1178 28.1939 33.8776 28.1939 30.6053 28.1939C30.1241 28.1939 30.0279 28.0355 30.0279 27.5922C30.0279 26.5157 30.0279 25.4074 30.0279 24.3308C30.0279 21.671 28.0068 19.8345 25.6007 19.9295C24.0608 19.9928 22.5209 19.9295 20.981 19.9295C18.607 19.9295 16.8105 21.7343 16.7784 24.0775C16.7784 25.2491 16.7784 26.4523 16.7784 27.6239C16.7784 28.0672 16.618 28.1622 16.2009 28.1622C12.9287 28.1622 9.68848 28.1622 6.41621 28.1622C3.27227 28.1622 0.545378 25.7557 0.0962432 22.6843C0.0962432 22.6209 0.0320811 22.5576 0 22.4943C0 18.9162 0 15.3698 0 11.7917C0 9.9235 1.98903 8.0553 3.91389 8.0553C5.80667 8.0553 7.69946 8.0553 9.59224 8.0553C10.7792 8.0553 11.9983 8.0553 13.1853 8.0553C19.9865 8.0553 26.8198 8.0553 33.621 8.0553C34.808 8.0553 36.027 8.0553 37.214 8.0553C39.0427 8.0553 40.8392 8.0553 42.6678 8.0553C44.9456 8.0553 46.8063 9.89183 46.8063 12.14C46.8063 15.5914 46.8063 19.0429 46.8063 22.5259Z" fill="#313678"/>
<path d="M12.8478 8.05531C11.6199 8.05531 10.3588 8.05531 9.13085 8.05531C9.13085 6.68876 9.03129 5.32221 9.19722 3.95567C9.5291 1.69008 11.3212 -0.00012207 13.4452 -0.00012207C20.0826 -0.00012207 26.7201 -0.00012207 33.3907 -0.00012207C35.7802 -0.00012207 37.6719 2.08566 37.7051 4.71087C37.7051 5.82568 37.7051 6.94049 37.7051 8.05531C36.4771 8.05531 35.216 8.05531 33.9881 8.05531C33.9881 7.01242 33.9881 6.00549 33.9881 4.9626C33.9881 4.24336 33.7558 4.02759 33.092 4.02759C26.6205 4.02759 20.1822 4.02759 13.7107 4.02759C13.0469 4.02759 12.8478 4.24336 12.8478 4.9626C12.8478 6.00549 12.8478 7.01242 12.8478 8.05531Z" fill="#C3D5FF"/>
</svg>
