<svg width="44" height="49" viewBox="0 0 44 49" fill="none" xmlns="http://www.w3.org/2000/svg">
<path d="M7.79695 32.6016C7.79695 23.1722 7.79695 13.7754 7.79695 4.34598C7.79695 2.15993 9.04798 0.920074 11.2537 0.920074C20.8998 0.920074 30.513 0.920074 40.1261 0.920074C42.266 0.920074 43.55 2.15993 43.55 4.28073C43.55 16.3203 43.55 28.3926 43.55 40.4322C43.55 44.5759 40.587 48.0018 36.5706 48.4586C36.4718 48.4586 36.406 48.426 36.3072 48.3934C36.373 48.2302 36.6364 48.3281 36.6364 48.0671C36.5706 48.0671 36.5377 48.0019 36.4718 48.0019C33.0479 46.6315 31.2043 43.9234 31.2043 40.2365C31.2043 38.8661 31.2043 37.4957 31.2043 36.1254C31.2043 33.8088 29.9862 32.6342 27.6488 32.6342C21.2949 32.6342 14.9081 32.6342 8.55415 32.6342C8.29078 32.6342 8.06033 32.6342 7.79695 32.6342V32.6016ZM25.6735 14.3301C28.4718 14.3301 31.2372 14.3301 34.0356 14.3301C34.3319 14.3301 34.6611 14.3301 34.9574 14.2322C35.7475 13.9059 36.2743 13.0576 36.1426 12.2745C35.978 11.2957 35.2208 10.6758 34.1344 10.6758C28.5047 10.6758 22.8751 10.6758 17.2455 10.6758C16.7846 10.6758 16.3566 10.7736 15.9945 11.0347C15.336 11.5241 15.0727 12.3071 15.3031 13.0576C15.5336 13.808 16.2249 14.3301 17.048 14.3301C19.9451 14.3301 22.8093 14.3301 25.7064 14.3301H25.6735ZM25.6735 20.4641C22.8751 20.4641 20.1097 20.4641 17.3113 20.4641C17.015 20.4641 16.6858 20.4641 16.3895 20.562C15.5994 20.8882 15.0727 21.7039 15.2043 22.5196C15.369 23.4984 16.1262 24.1184 17.2126 24.1184C22.8422 24.1184 28.4718 24.1184 34.1014 24.1184C34.5294 24.1184 34.9574 24.0205 35.2866 23.7921C35.978 23.3027 36.2414 22.5522 36.0109 21.8018C35.7805 21.0187 35.122 20.4967 34.2661 20.4967C31.3689 20.4967 28.5047 20.4967 25.6076 20.4967L25.6735 20.4641Z" fill="#C3D5FF"/>
<path d="M7.79686 32.6016C8.06023 32.6016 8.29068 32.6016 8.55406 32.6016C14.908 32.6016 21.2948 32.6016 27.6487 32.6016C29.9861 32.6016 31.2042 33.8088 31.2042 36.0928C31.2042 37.4631 31.2042 38.8335 31.2042 40.2038C31.2042 43.8581 33.0808 46.5989 36.4717 47.9692C36.5376 47.9692 37.6144 48.245 37.6802 48.245C37.4211 48.4161 36.9894 48.4161 36.644 48.4913C36.2986 48.4913 35.912 48.4913 35.7145 48.4913C26.233 48.4913 16.7516 48.4913 7.27011 48.4913C3.71456 48.4913 0.883287 46.0442 0.488226 42.5204C0.224852 40.0733 0.224852 37.6263 0.488226 35.1792C0.652835 33.5804 1.96971 32.6016 3.61579 32.6016C4.99851 32.6016 6.38122 32.6016 7.76394 32.6016H7.79686Z" fill="#313678"/>
<path d="M25.6731 14.33C22.776 14.33 19.9118 14.33 17.0147 14.33C16.1917 14.33 15.5332 13.8079 15.2699 13.0575C15.0394 12.307 15.2699 11.524 15.9612 11.0346C16.3234 10.7735 16.7513 10.6757 17.2122 10.6757C22.8419 10.6757 28.4715 10.6757 34.1011 10.6757C35.1875 10.6757 35.9447 11.2956 36.1093 12.2744C36.241 13.0575 35.7143 13.9058 34.9242 14.2321C34.6279 14.3626 34.3316 14.33 34.0023 14.33C31.204 14.33 28.4386 14.33 25.6402 14.33H25.6731Z" fill="#313678"/>
<path d="M25.6738 20.4641C28.5709 20.4641 31.4351 20.4641 34.3322 20.4641C35.1882 20.4641 35.8466 20.9861 36.0771 21.7692C36.3075 22.5196 36.0112 23.3027 35.3528 23.7595C34.9907 24.0205 34.5956 24.0858 34.1676 24.0858C28.538 24.0858 22.9084 24.0858 17.2787 24.0858C16.1923 24.0858 15.4351 23.4658 15.2705 22.487C15.1388 21.6713 15.6327 20.8556 16.4557 20.5293C16.752 20.3988 17.0483 20.4315 17.3775 20.4315C20.1759 20.4315 22.9413 20.4315 25.7396 20.4315L25.6738 20.4641Z" fill="#313678"/>
</svg>
