<svg width="21" height="18" viewBox="0 0 21 18" fill="none" xmlns="http://www.w3.org/2000/svg">
<path d="M3.85 8H16V10H3.85L5.4 11.55L4 13L0 9L4 5L5.4 6.45L3.85 8ZM9 12V16H19V2H9V6H7V2C7 1.45 7.19583 0.979166 7.5875 0.5875C7.97917 0.195833 8.45 0 9 0H19C19.55 0 20.0208 0.195833 20.4125 0.5875C20.8042 0.979166 21 1.45 21 2V16C21 16.55 20.8042 17.0208 20.4125 17.4125C20.0208 17.8042 19.55 18 19 18H9C8.45 18 7.97917 17.8042 7.5875 17.4125C7.19583 17.0208 7 16.55 7 16V12H9Z" fill="#313678"/>
</svg>
