<svg width="18" height="19" viewBox="0 0 18 19" fill="none" xmlns="http://www.w3.org/2000/svg">
<path d="M16.6 18.025L10.25 11.675L11.65 10.275L18 16.625L16.6 18.025ZM2.95 17.325C1.95 16.325 1.20833 15.2 0.725 13.95C0.241667 12.7 0 11.425 0 10.125C0 8.825 0.241667 7.55833 0.725 6.325C1.20833 5.09167 1.95 3.975 2.95 2.975C3.95 1.975 5.07083 1.22917 6.3125 0.7375C7.55417 0.245833 8.825 0 10.125 0C11.425 0 12.6958 0.245833 13.9375 0.7375C15.1792 1.22917 16.3 1.975 17.3 2.975L2.95 17.325ZM3.15 14.275L4.5 12.925C4.23333 12.575 3.97917 12.2167 3.7375 11.85C3.49583 11.4833 3.275 11.1167 3.075 10.75C2.875 10.3833 2.7 10.0167 2.55 9.65C2.4 9.28333 2.26667 8.925 2.15 8.575C1.96667 9.55833 1.95417 10.5417 2.1125 11.525C2.27083 12.5083 2.61667 13.425 3.15 14.275ZM5.95 11.525L11.5 5.925C10.7833 5.375 10.0625 4.92917 9.3375 4.5875C8.6125 4.24583 7.93333 4.0125 7.3 3.8875C6.66667 3.7625 6.09583 3.74167 5.5875 3.825C5.07917 3.90833 4.68333 4.09167 4.4 4.375C4.11667 4.675 3.93333 5.07917 3.85 5.5875C3.76667 6.09583 3.7875 6.67083 3.9125 7.3125C4.0375 7.95417 4.27083 8.63333 4.6125 9.35C4.95417 10.0667 5.4 10.7917 5.95 11.525ZM12.9 4.525L14.3 3.175C13.4167 2.64167 12.4833 2.29167 11.5 2.125C10.5167 1.95833 9.53333 1.975 8.55 2.175C8.91667 2.29167 9.28333 2.425 9.65 2.575C10.0167 2.725 10.3833 2.89583 10.75 3.0875C11.1167 3.27917 11.4792 3.49583 11.8375 3.7375C12.1958 3.97917 12.55 4.24167 12.9 4.525Z" fill="#313678"/>
</svg>
