<svg width="48" height="47" viewBox="0 0 48 47" fill="none" xmlns="http://www.w3.org/2000/svg">
<g clip-path="url(#clip0_2959_1404)">
<path d="M23.217 31.2961C26.1596 31.2961 29.0244 31.7352 31.7509 32.8809C37.1399 35.1443 40.9893 38.9685 43.287 44.3438C43.8747 45.7182 43.0309 46.9931 41.5444 46.9937C29.7065 46.9977 17.8692 46.9977 6.03127 46.9937C4.57912 46.9937 3.69811 45.7147 4.2744 44.3907C7.14497 37.7959 12.0817 33.6236 19.0543 31.8604C19.2361 31.8147 19.4179 31.7672 19.5997 31.7203C20.7958 31.4939 22.0078 31.4059 23.217 31.2967V31.2961Z" fill="#C3D5FF"/>
<path d="M37.6567 28.9177C32.3604 28.9262 28.0222 24.6101 27.9999 19.3106C27.9776 14.0008 32.3375 9.62008 37.6419 9.62409C42.9474 9.62752 47.2781 13.9431 47.2913 19.2391C47.3044 24.5775 42.9926 28.9097 37.6567 28.9182V28.9177Z" fill="#313678"/>
<path d="M14.5624 7.48576C16.0688 6.94088 17.6039 6.54295 19.2196 6.50007C20.8501 6.45661 22.4492 6.63386 23.9762 7.21132C24.5028 7.41029 24.9836 7.76248 25.3077 8.2559C25.7251 8.89054 25.6765 9.70242 25.2088 10.313C24.7194 10.9517 23.923 11.1712 23.0832 10.8705C20.2824 9.86822 17.5576 10.0175 14.9106 11.3919C14.7305 11.4857 14.5687 11.6143 14.3983 11.727C13.3303 12.3164 12.4756 13.1992 11.4614 13.8624C9.15168 15.64 8.14032 18.015 8.25466 20.8938C8.28211 21.5902 8.44905 22.2677 8.65029 22.9366C8.95501 23.948 8.48907 24.9372 7.58633 25.2413C6.64701 25.5581 5.51044 24.9783 5.18856 23.9801C4.48536 21.7966 4.40875 19.5873 4.98904 17.3621C5.51787 15.3347 6.50979 13.5646 7.9831 12.0757C8.28496 11.7704 8.21407 11.6709 7.87162 11.5017C6.01412 10.5846 4.01598 11.755 3.90507 13.8396C3.84904 14.9007 3.05722 15.688 2.06701 15.6669C1.04879 15.6457 0.288979 14.815 0.290694 13.7241C0.297555 9.3182 4.93015 6.30453 8.97559 8.0678C9.38094 8.24446 9.83545 8.69329 10.1762 8.5149C10.4369 8.37825 10.4306 7.74076 10.5518 7.32853C11.7232 3.32916 15.2633 0.403537 19.4014 0.0118905C20.5459 -0.0961695 21.4555 0.573917 21.5476 1.59391C21.6499 2.72368 20.9044 3.50126 19.7015 3.61847C17.2317 3.85917 15.4491 5.08785 14.4526 7.39314C14.4492 7.43659 14.4452 7.48004 14.4417 7.52349C14.4818 7.51091 14.5224 7.49834 14.5624 7.48576Z" fill="#C3D5FF"/>
<path d="M11.4614 13.863C12.4756 13.1998 13.3303 12.317 14.3983 11.7275C15.2936 12.5651 15.9859 13.5731 16.6909 14.5594C18.9823 17.7675 20.8432 21.2088 22.0741 24.9658C22.747 27.0189 23.1575 29.1281 23.217 31.2961C22.0072 31.4053 20.7952 31.4934 19.5997 31.7198C19.59 28.9165 18.8439 26.2836 17.7525 23.7296C16.5216 20.8492 14.9283 18.1791 13.0393 15.6869C12.5551 15.0477 12.0891 14.3827 11.462 13.863H11.4614Z" fill="#313678"/>
<path d="M14.5624 7.48575C14.5224 7.49833 14.4818 7.51091 14.4417 7.52349C14.4458 7.48004 14.4492 7.43659 14.4526 7.39314C14.4892 7.42401 14.5258 7.45488 14.5624 7.48575Z" fill="#C3D5FF"/>
</g>
<defs>
<clipPath id="clip0_2959_1404">
<rect width="47" height="46.9964" fill="white" transform="translate(0.290695 0.000457764)"/>
</clipPath>
</defs>
</svg>
