<svg width="48" height="38" viewBox="0 0 48 38" fill="none" xmlns="http://www.w3.org/2000/svg">
<g clip-path="url(#clip0_2959_1413)">
<path d="M47.8144 20.7842C47.7527 21.214 47.6916 21.6439 47.6292 22.0731C47.3886 23.733 46.8025 25.2902 46.2151 26.8474C45.5574 28.0989 44.7935 29.2868 44.0544 30.4898C43.9159 30.6161 43.7573 30.7263 43.6419 30.8712C42.788 31.9455 41.8077 32.8922 40.73 33.7352C36.5268 37.0215 31.7444 38.3255 26.4854 37.6204C21.4117 36.9402 17.2506 34.517 14.1247 30.4459C10.7864 26.098 9.57651 21.1552 10.4789 15.767C11.2249 11.3123 13.3579 7.57184 16.8237 4.63742C21.1353 0.988738 26.1387 -0.435195 31.6994 0.311966C36.1962 0.916042 39.9892 2.98155 43.0493 6.36195C43.3771 6.72428 43.6303 7.16162 44.055 7.43394C44.3054 8.02994 44.7658 8.49266 45.0785 9.04885C45.4576 9.72447 45.8366 10.4001 46.2157 11.0751C46.2555 11.2003 46.2861 11.3296 46.3374 11.4496C47.114 13.2728 47.6039 15.1698 47.8156 17.139C47.8883 18.354 47.8877 19.5685 47.8156 20.7836L47.8144 20.7842ZM27.1968 17.3403C27.2014 17.6496 27.1005 17.818 26.8195 17.9519C25.9125 18.3835 25.0171 18.8404 24.1193 19.2928C23.3116 19.7001 22.8812 20.4017 22.9729 21.1471C23.0814 22.0293 23.7143 22.7049 24.5878 22.9086C24.9738 22.9986 25.3038 22.8647 25.6229 22.7078C27.018 22.0218 28.4125 21.3335 29.792 20.6174C30.478 20.2615 30.8507 19.6995 30.8449 18.8773C30.8253 16.127 30.8386 13.376 30.8374 10.6251C30.8374 9.46253 30.0874 8.60632 29.0691 8.59882C28.0588 8.59132 27.2061 9.50061 27.1934 10.6251C27.1807 11.7444 27.1905 12.8637 27.1905 13.983C27.1905 15.1023 27.1801 16.2216 27.1968 17.3409V17.3403Z" fill="#C3D5FF"/>
<path d="M14.0041 7.43395C13.7537 8.02995 13.2933 8.49267 12.9806 9.04886C12.6015 9.72448 12.2224 10.4001 11.8434 11.0751C8.71222 11.0751 5.58164 11.0832 2.45049 11.0705C1.00463 11.0648 0.0930369 9.85429 0.559219 8.59941C0.83039 7.86898 1.47485 7.43049 2.33394 7.42991C6.2238 7.42703 10.1137 7.43164 14.0035 7.43337L14.0041 7.43395Z" fill="#313678"/>
<path d="M11.844 26.8474C12.5017 28.0989 13.2656 29.2868 14.0047 30.4898C11.7459 30.4915 9.48708 30.5002 7.22829 30.4932C6.08534 30.4898 5.32317 29.7519 5.32433 28.6845C5.32548 27.6315 6.10264 26.8659 7.23175 26.8532C8.76935 26.8359 10.3069 26.848 11.8445 26.8474H11.844Z" fill="#313678"/>
<path d="M10.2441 17.1395C10.1714 18.3546 10.1719 19.5691 10.2441 20.7842C8.44336 20.7842 6.64325 20.7888 4.84256 20.7842C3.70019 20.7813 2.85956 20.0013 2.86071 18.9604C2.86187 17.9127 3.69442 17.1418 4.84256 17.1395C6.64267 17.1355 8.44336 17.1395 10.2441 17.1395Z" fill="#313678"/>
<path d="M27.1905 13.9824C27.1905 15.1017 27.1801 16.221 27.1968 17.3403C27.2014 17.6496 27.1005 17.8181 26.8195 17.9519C25.9125 18.3835 25.0171 18.8404 24.1193 19.2928C23.3116 19.7001 22.8812 20.4017 22.9729 21.1471C23.0814 22.0293 23.7143 22.7049 24.5878 22.9086C24.9738 22.9986 25.3038 22.8647 25.6229 22.7078C27.018 22.0218 28.4125 21.3335 29.792 20.6175C30.478 20.2615 30.8507 19.6995 30.8449 18.8773C30.8253 16.127 30.8386 13.376 30.8374 10.6251C30.8374 9.46254 30.0874 8.60633 29.0691 8.59883C28.0588 8.59133 27.2061 9.50062 27.1934 10.6251C27.1807 11.7444 27.1905 12.8637 27.1905 13.983V13.9824Z" fill="#313678"/>
</g>
<defs>
<clipPath id="clip0_2959_1413">
<rect width="47.4312" height="37.6875" fill="white" transform="translate(0.437485 0.119263)"/>
</clipPath>
</defs>
</svg>
