<svg width="20" height="17" viewBox="0 0 20 17" fill="none" xmlns="http://www.w3.org/2000/svg">
<path d="M2 14C1.45 14 0.979167 13.8042 0.5875 13.4125C0.195833 13.0208 0 12.55 0 12V2C0 1.45 0.195833 0.979167 0.5875 0.5875C0.979167 0.195833 1.45 0 2 0H18C18.55 0 19.0208 0.195833 19.4125 0.5875C19.8042 0.979167 20 1.45 20 2V8C19.7167 7.78333 19.4083 7.6 19.075 7.45C18.7417 7.3 18.3833 7.18333 18 7.1V2H2V12H12V14H2ZM14.85 17C14.6167 17 14.4167 16.9167 14.25 16.75C14.0833 16.5833 14 16.3833 14 16.15V12.85C14 12.6167 14.0833 12.4167 14.25 12.25C14.4167 12.0833 14.6167 12 14.85 12H15V11C15 10.45 15.1958 9.97917 15.5875 9.5875C15.9792 9.19583 16.45 9 17 9C17.55 9 18.0208 9.19583 18.4125 9.5875C18.8042 9.97917 19 10.45 19 11V12H19.15C19.3833 12 19.5833 12.0833 19.75 12.25C19.9167 12.4167 20 12.6167 20 12.85V16.15C20 16.3833 19.9167 16.5833 19.75 16.75C19.5833 16.9167 19.3833 17 19.15 17H14.85ZM16 12H18V11C18 10.7167 17.9042 10.4792 17.7125 10.2875C17.5208 10.0958 17.2833 10 17 10C16.7167 10 16.4792 10.0958 16.2875 10.2875C16.0958 10.4792 16 10.7167 16 11V12Z" fill="#313678"/>
<path d="M3 3H17V5H3V3Z" fill="#313678"/>
<path d="M3 6H14V8H3V6Z" fill="#313678"/>
<path d="M3 9H12V11H3V9Z" fill="#313678"/>
</svg>
