<svg width="20" height="22" viewBox="0 0 20 22" fill="none" xmlns="http://www.w3.org/2000/svg">
<path d="M2 20C1.45 20 0.979167 19.8042 0.5875 19.4125C0.195833 19.0208 0 18.55 0 18V4C0 3.45 0.195833 2.97917 0.5875 2.5875C0.979167 2.19583 1.45 2 2 2H6.2C6.41667 1.4 6.77917 0.916667 7.2875 0.55C7.79583 0.183333 8.36667 0 9 0C9.63333 0 10.2042 0.183333 10.7125 0.55C11.2208 0.916667 11.5833 1.4 11.8 2H16C16.55 2 17.0208 2.19583 17.4125 2.5875C17.8042 2.97917 18 3.45 18 4V10.7C17.6833 10.55 17.3583 10.4208 17.025 10.3125C16.6917 10.2042 16.35 10.125 16 10.075V4H2V18H8.05C8.1 18.3667 8.17917 18.7167 8.2875 19.05C8.39583 19.3833 8.525 19.7 8.675 20H2ZM2 18V4V10.075V10V18ZM4 16H8.075C8.125 15.65 8.20417 15.3083 8.3125 14.975C8.42083 14.6417 8.54167 14.3167 8.675 14H4V16ZM4 12H10.1C10.6333 11.5 11.2292 11.0833 11.8875 10.75C12.5458 10.4167 13.25 10.1917 14 10.075V10H4V12ZM4 8H14V6H4V8ZM9 3.25C9.21667 3.25 9.39583 3.17917 9.5375 3.0375C9.67917 2.89583 9.75 2.71667 9.75 2.5C9.75 2.28333 9.67917 2.10417 9.5375 1.9625C9.39583 1.82083 9.21667 1.75 9 1.75C8.78333 1.75 8.60417 1.82083 8.4625 1.9625C8.32083 2.10417 8.25 2.28333 8.25 2.5C8.25 2.71667 8.32083 2.89583 8.4625 3.0375C8.60417 3.17917 8.78333 3.25 9 3.25ZM15 22C13.6167 22 12.4375 21.5125 11.4625 20.5375C10.4875 19.5625 10 18.3833 10 17C10 15.6167 10.4875 14.4375 11.4625 13.4625C12.4375 12.4875 13.6167 12 15 12C16.3833 12 17.5625 12.4875 18.5375 13.4625C19.5125 14.4375 20 15.6167 20 17C20 18.3833 19.5125 19.5625 18.5375 20.5375C17.5625 21.5125 16.3833 22 15 22Z" fill="#313678"/>
<path d="M15 14L18 16.7692L17.3 17.4154L15.5 15.7538L15.5 20L14.5 20L14.5 15.7538L12.7 17.4154L12 16.7692L15 14Z" fill="white"/>
</svg>
