<svg width="48" height="47" viewBox="0 0 48 47" fill="none" xmlns="http://www.w3.org/2000/svg">
<g clip-path="url(#clip0_2959_1422)">
<path d="M34.9317 46.5279C34.4371 46.7891 33.9036 46.8764 33.3516 46.8764C23.7666 46.8764 14.1822 46.8821 4.59719 46.873C2.1505 46.8707 0.297 45.0223 0.295853 42.5877C0.288976 29.8197 0.288976 17.0523 0.295853 4.28429C0.297573 1.85137 2.15508 0.00814163 4.60406 0.00643071C14.208 -0.00155356 23.8113 -0.00155356 33.4152 0.00643071C35.8854 0.00871193 37.7303 1.83996 37.7378 4.33277C37.7561 10.0968 37.7401 17.4521 37.7378 23.2161C34.7753 23.2201 34.0738 27.5602 31.1113 27.5556C30.5112 27.5545 29.8664 27.4758 29.4429 27.9052C28.6898 28.6694 28.5735 28.5993 27.8037 29.3469C27.4169 29.7228 26.9653 29.8699 26.9698 30.3951C26.9933 33.0602 24.2939 31.1976 24.5105 33.8563C24.91 38.7649 27.3361 42.4349 31.5944 44.9031C32.6639 45.5231 33.782 46.062 34.9317 46.5285V46.5279ZM19.0332 10.82C22.1647 10.82 25.2957 10.82 28.4273 10.8194C28.6715 10.8194 28.9145 10.828 29.1558 10.7538C30.0137 10.4898 30.596 9.64858 30.4768 8.82848C30.333 7.83843 29.6022 7.2168 28.5534 7.21623C22.1963 7.21338 15.8397 7.21452 9.48254 7.2168C9.2957 7.2168 9.10255 7.22593 8.92259 7.27041C8.03137 7.49112 7.45309 8.3135 7.54651 9.20659C7.64279 10.1265 8.42225 10.8154 9.41261 10.8177C12.6193 10.8251 15.8259 10.8206 19.0332 10.8206V10.82ZM19.0223 18.0315C22.21 18.0315 25.3983 18.0355 28.5861 18.0292C29.6779 18.0269 30.5043 17.2302 30.4957 16.2179C30.4871 15.2233 29.6744 14.4295 28.6205 14.4289C22.2071 14.4232 15.7933 14.4266 9.37994 14.4255C8.92775 14.4255 8.52713 14.5629 8.18383 14.8543C7.59121 15.3568 7.38947 16.1193 7.65196 16.8424C7.91503 17.5667 8.57241 18.0269 9.40172 18.0286C12.6084 18.0349 15.815 18.0309 19.0223 18.0315ZM14.2206 21.6375C12.6382 21.6375 11.0552 21.633 9.47279 21.6392C8.34086 21.6438 7.52587 22.4211 7.5402 23.4665C7.55396 24.4822 8.36723 25.2396 9.47165 25.2413C12.5992 25.2464 15.7268 25.2459 18.8543 25.2413C20.0086 25.2396 20.8058 24.4959 20.8058 23.4403C20.8058 22.3881 20.0046 21.6421 18.8555 21.6387C17.3103 21.6335 15.7657 21.6375 14.2206 21.6375Z" fill="#C3D5FF"/>
<path d="M19.0332 10.8198C15.8265 10.8198 12.6198 10.8244 9.41261 10.817C8.42225 10.8147 7.64279 10.1258 7.54651 9.20586C7.45309 8.31277 8.03137 7.49039 8.92259 7.26968C9.10255 7.22519 9.29569 7.21607 9.48253 7.21607C15.8397 7.21322 22.1963 7.21265 28.5534 7.2155C29.6022 7.2155 30.333 7.83827 30.4768 8.82775C30.596 9.64785 30.0137 10.4891 29.1558 10.7531C28.9145 10.8272 28.6715 10.8187 28.4273 10.8187C25.2957 10.8198 22.1647 10.8193 19.0332 10.8193V10.8198Z" fill="#313678"/>
<path d="M19.0223 18.0308C15.8156 18.0308 12.609 18.0342 9.40173 18.0285C8.57241 18.0268 7.91503 17.5665 7.65196 16.8423C7.3889 16.1191 7.59121 15.3566 8.18383 14.8542C8.52771 14.5627 8.92832 14.4253 9.37995 14.4253C15.7933 14.4259 22.2071 14.423 28.6205 14.4287C29.6744 14.4299 30.4871 15.2237 30.4957 16.2178C30.5043 17.2301 29.6773 18.0268 28.5861 18.0291C25.3983 18.0353 22.21 18.0313 19.0223 18.0313V18.0308Z" fill="#313678"/>
<path d="M14.2206 21.6368C15.7657 21.6368 17.3103 21.6328 18.8555 21.638C20.0052 21.642 20.8064 22.3873 20.8058 23.4396C20.8058 24.4952 20.008 25.2389 18.8543 25.2406C15.7268 25.2446 12.5992 25.2451 9.47164 25.2406C8.36722 25.2389 7.55395 24.4815 7.54019 23.4658C7.52587 22.4204 8.34086 21.6431 9.47279 21.6385C11.0552 21.6323 12.6382 21.6368 14.2206 21.6368Z" fill="#313678"/>
<path d="M34.6257 47C41.6204 47 47.2907 41.3576 47.2907 34.3974C47.2907 27.4372 41.6204 21.7948 34.6257 21.7948C27.631 21.7948 21.9607 27.4372 21.9607 34.3974C21.9607 41.3576 27.631 47 34.6257 47Z" fill="#313678"/>
<path d="M32.8243 39.768C32.8243 38.2304 32.8203 30.4201 32.8255 28.8826C32.8295 27.7385 33.5786 26.9412 34.636 26.9418C35.6969 26.9418 36.4442 27.7357 36.446 28.8837C36.45 31.9958 36.4505 36.8189 36.446 39.9311C36.4442 41.0301 35.6831 41.8393 34.6624 41.853C33.6118 41.8673 32.8307 41.0563 32.8261 39.9299C32.8198 38.3553 32.8243 41.3426 32.8243 39.768Z" fill="#C3D5FF"/>
<path d="M33.5528 38.5794C34.6452 37.4924 35.7347 36.4026 36.8311 35.319C37.6467 34.5126 38.743 34.4761 39.491 35.2203C40.2412 35.9669 40.2057 37.0539 39.3907 37.8671C37.1818 40.0708 38.2129 39.0454 35.9983 41.2428C35.216 42.019 34.1024 42.0555 33.3711 41.3471C32.618 40.6177 32.6421 39.4948 33.4393 38.6952C34.5541 37.5774 32.434 39.6932 33.5534 38.5794H33.5528Z" fill="#C3D5FF"/>
<path d="M35.6992 38.5794C34.6068 37.4924 33.5173 36.4026 32.4209 35.319C31.6053 34.5126 30.5089 34.4761 29.761 35.2203C29.0108 35.9669 29.0463 37.0539 29.8613 37.8671C32.0701 40.0708 31.0391 39.0454 33.2536 41.2428C34.0359 42.019 35.1495 42.0555 35.8808 41.3471C36.6339 40.6177 36.6099 39.4948 35.8126 38.6952C34.6979 37.5774 36.8179 39.6932 35.6986 38.5794H35.6992Z" fill="#C3D5FF"/>
</g>
<defs>
<clipPath id="clip0_2959_1422">
<rect width="47" height="47" fill="white" transform="translate(0.290695)"/>
</clipPath>
</defs>
</svg>
