<svg width="56" height="49" viewBox="0 0 56 49" fill="none" xmlns="http://www.w3.org/2000/svg">
<g clip-path="url(#clip0_2959_1464)">
<path d="M13.0542 17.434C15.4469 5.97892 26.3016 -1.47106 37.6605 0.557935C47.5272 2.31975 55.1027 10.9004 55.2869 21.6327C55.3555 25.6442 54.3547 29.404 52.3481 32.8722C52.1525 33.2116 52.0992 33.5111 52.1982 33.9073C53.2244 38.0285 54.2404 42.1524 55.2297 46.2826C55.5726 47.7153 54.2671 48.8963 52.8815 48.451C52.6288 48.3697 52.3837 48.2587 52.1398 48.1516C48.1723 46.4195 44.2036 44.6912 40.2412 42.9462C39.9211 42.8055 39.6417 42.79 39.3153 42.8803C37.5805 43.3592 35.8139 43.6147 33.9153 43.576C32.5589 43.6264 31.1187 43.4676 29.7001 43.1707C18.0809 40.7442 10.6031 29.1717 13.0542 17.434Z" fill="#313678"/>
<path d="M33.7159 23.9237C31.8223 14.859 23.232 8.96307 14.2429 10.5674C6.43497 11.9627 0.439288 18.7531 0.293238 27.2473C0.238628 30.4211 1.03111 33.3975 2.61861 36.1428C2.77355 36.4113 2.81546 36.6488 2.73799 36.9612C1.92646 40.2228 1.12255 43.487 0.338958 46.7551C0.0671777 47.8883 1.10096 48.8241 2.19697 48.4717C2.39763 48.4072 2.59067 48.3194 2.78371 48.2342C5.92316 46.8635 9.06515 45.4953 12.2008 44.1143C12.4535 44.0033 12.6758 43.9904 12.9336 44.0614C14.3064 44.4408 15.7047 44.6422 17.2071 44.6125C18.2803 44.6525 19.4207 44.526 20.5434 44.2924C29.7382 42.3718 35.6577 33.2142 33.7172 23.9237H33.7159Z" fill="#C3D5FF"/>
</g>
<defs>
<clipPath id="clip0_2959_1464">
<rect width="55" height="48.3216" fill="white" transform="translate(0.290695 0.224945)"/>
</clipPath>
</defs>
</svg>
