<svg width="52" height="53" viewBox="0 0 52 53" fill="none" xmlns="http://www.w3.org/2000/svg">
<g clip-path="url(#clip0_2959_1448)">
<path d="M21.9799 15.6051C23.0805 15.6446 24.1887 15.5171 25.2647 15.9214C26.8274 16.5081 27.9601 18.0508 27.9704 19.7188C27.9784 20.9785 27.9755 22.2388 27.9778 23.4986C26.2219 23.9028 25.016 24.9104 24.5243 26.6813C24.3156 27.4338 24.4025 28.2127 24.3648 28.9806C24.3436 29.4123 24.486 29.5764 24.9028 29.4998C25.4671 29.3969 25.6101 29.6142 25.6089 30.1877C25.5901 37.7872 25.6004 45.3867 25.6032 52.9862C24.3922 52.9862 23.1812 52.9862 21.9702 52.9862C21.973 45.3993 21.9702 37.8124 21.9925 30.2255C21.9942 29.6525 21.8701 29.386 21.2686 29.4998C20.8209 29.5845 20.7454 29.3586 20.7511 28.96C20.7723 27.5293 20.7677 26.0986 20.754 24.6679C20.746 23.8285 20.2394 23.1766 19.4641 22.9485C18.2862 22.6019 17.169 23.4677 17.1507 24.7794C17.1284 26.3417 17.1421 27.9044 17.1478 29.4672C17.1489 29.7228 17.1238 29.9155 16.8625 30.0728C15.393 30.9562 14.7412 32.2834 14.7458 33.9852C14.7583 38.7107 14.7572 43.4362 14.7435 48.1618C14.7412 49.0001 14.8138 49.8126 15.1311 50.5931C12.9996 50.6057 10.868 50.6183 8.73697 50.6309C7.53167 50.6286 6.32694 50.6263 5.12163 50.624C3.12728 50.6669 1.57205 49.9344 0.661206 48.0823C0.409624 47.5705 0.293554 47.017 0.293554 46.448C0.290695 37.5614 0.287836 28.6741 0.294126 19.7874C0.295841 17.7609 1.88252 16.0094 3.88545 15.7006C4.69509 15.5754 5.49958 15.6646 6.30406 15.6017C7.5088 15.604 8.7141 15.6069 9.91883 15.6091C12.7343 15.608 15.5491 15.6069 18.3645 15.6063H21.9793L21.9799 15.6051ZM7.5208 33.116C7.5208 35.8648 7.51852 38.6129 7.52195 41.3617C7.52309 42.5025 8.28298 43.3487 9.3076 43.3665C10.346 43.3848 11.1339 42.5219 11.1344 41.3462C11.1373 35.8493 11.1356 30.3518 11.135 24.8549C11.135 24.6296 11.135 24.4072 11.0641 24.1853C10.7879 23.3259 9.94857 22.7581 9.12292 22.8844C8.16462 23.0314 7.52767 23.7324 7.52424 24.7005C7.51451 27.5053 7.5208 30.3107 7.52023 33.1154L7.5208 33.116Z" fill="#C3D5FF"/>
<path d="M25.6038 52.9862C25.6009 45.3867 25.5906 37.7872 25.6095 30.1877C25.6107 29.6136 25.4677 29.3963 24.9034 29.4998C24.4865 29.5759 24.3442 29.4118 24.3653 28.9806C24.4031 28.2127 24.3162 27.4338 24.5249 26.6813C25.016 24.911 26.2219 23.9028 27.9784 23.4986C29.7252 23.4946 31.4714 23.4826 33.2181 23.4888C35.8449 23.4986 37.6351 25.2884 37.6551 27.9107C37.6591 28.4368 37.6517 28.9623 37.65 29.4884C37.5562 29.4924 37.4619 29.4981 37.3681 29.4993C36.7494 29.508 36.4401 29.8279 36.4401 30.4588C36.4372 37.9679 36.4344 45.4771 36.4309 52.9857C32.8225 52.9857 29.2134 52.9857 25.6049 52.9857L25.6038 52.9862ZM30.9916 29.4998C31.8745 29.4998 32.7573 29.493 33.6401 29.5038C33.9088 29.5073 34.0627 29.4627 34.0461 29.1407C34.0226 28.6913 34.0495 28.239 34.0364 27.7884C34.0238 27.3401 33.7956 27.0999 33.3285 27.1005C31.7881 27.1039 30.2478 27.1045 28.708 27.1005C28.2397 27.0993 28.0144 27.3366 28.003 27.7872C27.9927 28.2001 28.0196 28.6147 27.9938 29.0264C27.9715 29.3815 28.0676 29.5227 28.4564 29.5084C29.3003 29.4781 30.1466 29.4993 30.9916 29.4993V29.4998Z" fill="#313678"/>
<path d="M15.1317 50.5926C14.8144 49.812 14.7418 48.9995 14.7441 48.1612C14.7578 43.4357 14.7589 38.7101 14.7463 33.9846C14.7418 32.2829 15.3936 30.9557 16.8631 30.0722C17.1244 29.915 17.1495 29.7223 17.1484 29.4667C17.1427 27.9039 17.1289 26.3411 17.1512 24.7789C17.1701 23.4677 18.2868 22.602 19.4646 22.9479C20.24 23.1761 20.7466 23.8279 20.7546 24.6674C20.7683 26.0981 20.7729 27.5293 20.7517 28.9595C20.746 29.358 20.8215 29.5839 21.2692 29.4993C21.8707 29.3855 21.9947 29.6519 21.993 30.2249C21.9707 37.8118 21.9742 45.3987 21.9707 52.9856C20.9381 52.9885 19.9043 53.0211 18.8729 52.9879C17.1615 52.933 15.9459 52.0662 15.1311 50.5914L15.1317 50.5926Z" fill="#313678"/>
<path d="M40.0629 29.5124C41.3402 29.5324 42.6273 29.3672 43.8921 29.6005C45.8521 29.9624 47.2661 31.6356 47.2741 33.6255C47.2941 38.7073 47.2976 43.7896 47.2735 48.872C47.2627 51.1329 45.4244 52.9473 43.1676 52.9914C42.1333 53.0114 41.0978 52.9891 40.0629 52.9862C40.0629 45.1614 40.0629 37.3366 40.0629 29.5124Z" fill="#313678"/>
<path d="M9.91998 15.6073C8.71525 15.605 7.50994 15.6021 6.30521 15.5998C6.30521 13.7936 6.28634 11.9874 6.31779 10.1823C6.32636 9.6951 6.17484 9.56417 5.71799 9.60934C5.3269 9.64822 4.92837 9.62477 4.53385 9.61505C3.49264 9.5899 2.68244 8.78426 2.69444 7.79338C2.70588 6.80935 3.48692 6.00943 4.50583 6.00772C10.9395 5.99857 17.3737 5.998 23.8078 6.00772C24.8159 6.00943 25.5964 6.83336 25.5935 7.81453C25.5906 8.79627 24.8107 9.58361 23.7976 9.61448C23.3464 9.62821 22.893 9.64021 22.4436 9.60991C22.0782 9.58532 21.9673 9.69796 21.9713 10.073C21.9907 11.9165 21.9799 13.7604 21.9799 15.6038H18.3651C18.3651 13.7787 18.3565 11.953 18.3725 10.1279C18.376 9.766 18.3297 9.60248 17.9003 9.60648C15.3976 9.62821 12.8944 9.62763 10.3917 9.60648C9.96458 9.60305 9.90854 9.76429 9.91197 10.1308C9.92798 11.9559 9.91941 13.7816 9.91941 15.6067L9.91998 15.6073Z" fill="#313678"/>
<path d="M40.0629 29.5124C40.0629 37.3372 40.0629 45.162 40.0629 52.9862C38.8519 52.9862 37.6408 52.9862 36.4298 52.9862C36.4327 45.4771 36.4361 37.9679 36.439 30.4593C36.439 29.828 36.7483 29.5082 37.3669 29.4998C37.4607 29.4987 37.5551 29.4924 37.6488 29.489C38.4533 29.497 39.2578 29.505 40.0629 29.5124Z" fill="#C3D5FF"/>
<path d="M5.12163 50.6235C6.32693 50.6258 7.53167 50.628 8.73697 50.6303C8.76613 51.2787 8.71639 51.9111 8.23038 52.4051C7.7215 52.9226 7.1097 53.1484 6.39669 52.9037C5.6631 52.6516 5.21883 52.1375 5.13593 51.3508C5.11077 51.1106 5.12563 50.8659 5.1222 50.6229L5.12163 50.6235Z" fill="#313678"/>
<path d="M7.52138 33.116C7.52138 30.3112 7.51509 27.5059 7.52481 24.7011C7.52824 23.733 8.16462 23.032 9.12349 22.885C9.94914 22.7586 10.7885 23.3264 11.0647 24.1859C11.1361 24.4078 11.1356 24.6302 11.1356 24.8555C11.1361 30.3524 11.1373 35.8499 11.135 41.3468C11.1344 42.5225 10.3465 43.3854 9.30818 43.3671C8.28355 43.3488 7.52366 42.5025 7.52252 41.3623C7.51909 38.6135 7.52138 35.8653 7.52138 33.1166V33.116Z" fill="#313678"/>
</g>
<path d="M40.7907 21.002C46.5897 21.002 51.2907 16.3007 51.2907 10.5012C51.2907 4.70178 46.5897 0.000396729 40.7907 0.000396729C34.9917 0.000396729 30.2907 4.70178 30.2907 10.5012C30.2907 16.3007 34.9917 21.002 40.7907 21.002Z" fill="#313678"/>
<path d="M39.2907 16.0009H41.2907V15.0009H42.2907C42.574 15.0009 42.8115 14.905 43.0032 14.7134C43.1949 14.5217 43.2907 14.2842 43.2907 14.0009V11.0009C43.2907 10.7175 43.1949 10.48 43.0032 10.2884C42.8115 10.0967 42.574 10.0009 42.2907 10.0009H39.2907V9.00085H43.2907V7.00085H41.2907V6.00085H39.2907V7.00085H38.2907C38.0074 7.00085 37.7699 7.09669 37.5782 7.28835C37.3865 7.48002 37.2907 7.71752 37.2907 8.00085V11.0009C37.2907 11.2842 37.3865 11.5217 37.5782 11.7134C37.7699 11.905 38.0074 12.0009 38.2907 12.0009H41.2907V13.0009H37.2907V15.0009H39.2907V16.0009Z" fill="#C3D5FF"/>
<defs>
<clipPath id="clip0_2959_1448">
<rect width="47" height="47.0025" fill="white" transform="translate(0.290695 6.00085)"/>
</clipPath>
</defs>
</svg>
