<svg width="32" height="32" viewBox="0 0 32 32" fill="none" xmlns="http://www.w3.org/2000/svg">
<path d="M32 28.5972C32 29.5481 31.6706 30.3529 31.0118 31.0118C30.3529 31.6706 29.5481 32 28.5972 32L3.40282 32C2.45192 32 1.64706 31.6706 0.988235 31.0118C0.329412 30.3529 -1.07177e-07 29.5481 -1.48742e-07 28.5972L-7.00164e-07 15.9821L2.82353 15.9821L2.82353 28.5972C2.82353 28.7421 2.88392 28.8748 3.0047 28.9953C3.12518 29.1161 3.25788 29.1765 3.40282 29.1765L28.5972 29.1765C28.7421 29.1765 28.8748 29.1161 28.9953 28.9953C29.1161 28.8748 29.1765 28.7421 29.1765 28.5972L29.1765 15.9821L32 15.9821L32 28.5972ZM24.0362 8.03623L21.9944 9.99106L17.4118 5.408L17.4118 21.4659L14.5882 21.4659L14.5882 5.408L10.0056 9.99106L7.96376 8.03624L16 1.20797e-06L24.0362 8.03623Z" fill="#313678"/>
</svg>
