<svg width="14" height="14" viewBox="0 0 14 14" fill="none" xmlns="http://www.w3.org/2000/svg">
<path d="M7 14C6.02778 14 5.11713 13.8153 4.26806 13.4458C3.41898 13.0764 2.68009 12.5773 2.05139 11.9486C1.42269 11.3199 0.923611 10.581 0.554167 9.73194C0.184722 8.88287 0 7.97222 0 7C0 6.02778 0.184722 5.11713 0.554167 4.26806C0.923611 3.41898 1.42269 2.68009 2.05139 2.05139C2.68009 1.42269 3.41898 0.923611 4.26806 0.554167C5.11713 0.184722 6.02778 0 7 0C8.06296 0 9.07083 0.226852 10.0236 0.680556C10.9764 1.13426 11.7833 1.77593 12.4444 2.60556V0.777778H14V5.44444H9.33333V3.88889H11.4722C10.9407 3.16296 10.2861 2.59259 9.50833 2.17778C8.73056 1.76296 7.89444 1.55556 7 1.55556C5.48333 1.55556 4.19676 2.0838 3.14028 3.14028C2.0838 4.19676 1.55556 5.48333 1.55556 7C1.55556 8.51667 2.0838 9.80324 3.14028 10.8597C4.19676 11.9162 5.48333 12.4444 7 12.4444C8.36111 12.4444 9.55046 12.0037 10.5681 11.1222C11.5856 10.2407 12.1852 9.12593 12.3667 7.77778H13.9611C13.7667 9.5537 13.0051 11.0347 11.6764 12.2208C10.3477 13.4069 8.78889 14 7 14ZM9.17778 10.2667L6.22222 7.31111V3.11111H7.77778V6.68889L10.2667 9.17778L9.17778 10.2667Z" fill="#313678"/>
</svg>
