<svg width="39" height="40" viewBox="0 0 39 40" fill="none" xmlns="http://www.w3.org/2000/svg">
<g clip-path="url(#clip0_2959_1514)">
<path d="M18.7696 0C8.68649 0 0.484543 8.20194 0.484543 18.2851C0.484543 28.3933 8.68649 36.5952 18.7947 36.5952C28.8778 36.5952 37.0798 28.4184 37.0798 18.3102C37.1048 8.20194 28.8778 0 18.7696 0Z" fill="white"/>
<path d="M18.7696 0C28.8778 0 37.0798 8.20194 37.0798 18.3102C37.0798 28.3933 28.8778 36.5952 18.7947 36.5952C8.68649 36.5952 0.484543 28.3933 0.484543 18.2851C0.484543 8.20194 8.68649 0 18.7696 0ZM20.1742 13.6448C20.1742 12.1148 20.1742 10.5597 20.1742 9.02966C20.1742 8.57818 20.0237 8.15178 19.6726 7.85079C19.2211 7.47456 18.6944 7.39931 18.1676 7.65013C17.5907 7.92604 17.365 8.4026 17.365 9.00458C17.365 11.4627 17.365 13.9207 17.365 16.4039C17.365 16.8303 17.2396 16.9055 16.8383 16.9055C15.0323 16.9055 13.2013 16.9055 11.3954 16.9055C10.4924 16.9055 9.86536 17.4824 9.86536 18.3102C9.86536 19.1379 10.4673 19.7398 11.3703 19.7398C13.7782 19.7398 16.2112 19.7398 18.6191 19.7398C19.5472 19.7398 20.1491 19.1379 20.1491 18.2098C20.1491 16.7049 20.1491 15.1999 20.1491 13.6699L20.1742 13.6448Z" fill="#C3D5FF"/>
<path d="M20.1993 13.6448C20.1993 15.1498 20.1993 16.6547 20.1993 18.1847C20.1993 19.1128 19.5973 19.7148 18.6693 19.7148C16.2614 19.7148 13.8284 19.7148 11.4205 19.7148C10.5175 19.7148 9.91553 19.1379 9.91553 18.2851C9.91553 17.4573 10.5426 16.8805 11.4456 16.8805C13.2515 16.8805 15.0825 16.8805 16.8884 16.8805C17.2647 16.8805 17.4152 16.8052 17.4152 16.3788C17.4152 13.9207 17.4152 11.4627 17.4152 8.9795C17.4152 8.37752 17.6409 7.90095 18.2178 7.62505C18.7696 7.37422 19.2713 7.44947 19.7227 7.82571C20.099 8.1267 20.2244 8.52801 20.2244 9.00458C20.2244 10.5346 20.2244 12.0897 20.2244 13.6197L20.1993 13.6448Z" fill="#313678"/>
<path d="M28.326 39.9563C26.1188 39.9563 23.9115 39.9563 21.6792 39.9563C19.5973 39.9563 18.1676 38.5767 18.1425 36.4698C18.1425 33.4599 18.1425 30.45 18.1425 27.4652C18.1425 25.258 19.9234 23.9035 21.6039 24.0289C21.9802 24.054 22.3564 24.0289 22.7577 24.0289C23.0587 24.0289 23.159 23.9537 23.159 23.6276C23.159 23.2012 23.159 22.7497 23.1841 22.3233C23.2844 20.9187 24.3881 19.4389 26.2692 19.3385C27.6739 19.2633 29.1036 19.2131 30.5333 19.3636C32.3392 19.5894 33.4679 20.9187 33.493 22.7497C33.493 23.0256 33.493 23.3015 33.493 23.5775C33.4679 23.9035 33.5682 24.0289 33.9194 24.0289C34.5715 24.0289 35.2237 23.9286 35.8507 24.0791C37.456 24.4303 38.4844 25.7345 38.5095 27.4401C38.5095 30.45 38.5095 33.4599 38.5095 36.4447C38.5095 38.5767 37.0798 39.9312 34.9478 39.9312C32.7405 39.9312 30.5333 39.9312 28.3009 39.9312L28.326 39.9563ZM28.3511 24.0289C28.7273 24.0289 29.0785 24.0289 29.4547 24.0289C30.3577 24.0289 30.7757 23.5858 30.7088 22.6996C30.6837 22.3233 30.4831 22.1227 30.1319 22.1227C28.9531 22.1227 27.7491 22.1227 26.5702 22.1227C26.1689 22.1227 25.9933 22.3484 25.9933 22.7247C25.9933 23.0256 25.9933 23.3517 25.9933 23.6527C25.9933 23.9286 26.0686 24.054 26.3696 24.0289C27.0468 24.0289 27.724 24.0289 28.4012 24.0289H28.3511Z" fill="#313678"/>
</g>
<defs>
<clipPath id="clip0_2959_1514">
<rect width="38.05" height="39.9563" fill="white" transform="translate(0.484543)"/>
</clipPath>
</defs>
</svg>
